<svg width="20" height="22" viewBox="0 0 20 22" fill="none" xmlns="http://www.w3.org/2000/svg">
<g clip-path="url(#clip0_1_1900)">
<path d="M10.9466 0H9.04718V22H10.9466C15.945 22 19.9938 17.0763 19.9938 11C20 4.92375 15.945 0 10.9466 0Z" fill="#DB6402"/>
<path d="M9.04718 21.4045V22H10.9466C13.0709 22 15.0203 21.11 16.5636 19.6182L9.04718 19.7014V21.4045Z" fill="#DBA97F"/>
<path d="M13.0584 7.51691L19.5127 7.45288C19.0878 5.92902 18.3943 4.55242 17.5008 3.41272L13.0209 3.45754L13.0584 7.51691Z" fill="#FF9416"/>
<path d="M13.0147 2.68919L16.8322 2.65077C16.6385 2.44588 16.4324 2.2538 16.2262 2.06812L13.0084 2.10013L13.0147 2.68919Z" fill="#FF9416"/>
<path d="M9.04717 22C14.0438 22 18.0943 17.0751 18.0943 11C18.0943 4.92487 14.0438 0 9.04717 0C4.05056 0 0 4.92487 0 11C0 17.0751 4.05056 22 9.04717 22Z" fill="#FEE475"/>
<path d="M9.04715 21.6414C13.8816 21.6414 17.8007 16.8771 17.8007 11C17.8007 5.12286 13.8816 0.358521 9.04715 0.358521C4.21272 0.358521 0.29364 5.12286 0.29364 11C0.29364 16.8771 4.21272 21.6414 9.04715 21.6414Z" fill="#FED425"/>
<path d="M4.71725 20.2392L17.3258 7.52325C16.8947 6.0186 16.2012 4.66121 15.3014 3.54712L1.87439 17.089C2.61791 18.376 3.58635 19.4581 4.71725 20.2392Z" fill="#FF9416"/>
<path d="M17.5008 13.7788L9.74072 21.603C13.4771 21.2445 16.5511 18.0431 17.5008 13.7788Z" fill="#FF9416"/>
<path d="M0.687256 7.8562L8.04746 0.428955C7.16648 0.550608 6.32299 0.832331 5.54199 1.24851L1.81815 5.00695C1.3308 5.87133 0.943426 6.83175 0.687256 7.8562Z" fill="#FF9416"/>
<path d="M1.38706 16.1414L14.6204 2.79798C14.458 2.63791 14.2955 2.48425 14.1268 2.34338L1.1059 15.4691C1.19337 15.6996 1.28709 15.9237 1.38706 16.1414Z" fill="#FF9416"/>
<path d="M9.04717 0.403376C13.9894 0.403376 18.0069 5.21828 18.0943 11.2049C18.0943 11.1409 18.1006 11.0704 18.1006 11.0064C18.1006 4.92375 14.0456 0 9.04717 0C4.04873 0 0 4.92375 0 11C0 11.0704 0.00624805 11.1345 0.00624805 11.1985C0.0937207 5.21828 4.10497 0.403376 9.04717 0.403376Z" fill="#FF9416"/>
<path d="M9.25333 18.869C12.6902 18.869 15.4764 15.4806 15.4764 11.3009C15.4764 7.12114 12.6902 3.73279 9.25333 3.73279C5.81643 3.73279 3.03027 7.12114 3.03027 11.3009C3.03027 15.4806 5.81643 18.869 9.25333 18.869Z" fill="#FF9416"/>
<path d="M9.04715 18.5681C12.4841 18.5681 15.2702 15.1797 15.2702 11C15.2702 6.82024 12.4841 3.43188 9.04715 3.43188C5.61025 3.43188 2.8241 6.82024 2.8241 11C2.8241 15.1797 5.61025 18.5681 9.04715 18.5681Z" fill="#FEB724"/>
<path d="M3.24272 11.6403C3.24272 7.45924 6.02935 4.07216 9.46577 4.07216C11.3277 4.07216 12.9959 5.0646 14.1331 6.63328C13.0084 4.69324 11.1465 3.43188 9.04715 3.43188C5.61073 3.43188 2.8241 6.81896 2.8241 11C2.8241 12.9208 3.41141 14.6688 4.37986 16.007C3.66133 14.7712 3.24272 13.2666 3.24272 11.6403Z" fill="#FB9D12"/>
</g>
<defs>
<clipPath id="clip0_1_1900">
<rect width="20" height="22" fill="white"/>
</clipPath>
</defs>
</svg>
