<svg width="13" height="15" viewBox="0 0 13 15" fill="none" xmlns="http://www.w3.org/2000/svg">
<path d="M9.37862 5.79472C9.2852 5.78629 9.25221 5.7067 9.28643 5.63621C9.61806 4.96632 9.86373 4.13342 9.8676 3.41769C9.87167 2.60394 9.89225 2.14626 9.06571 2.13646C8.34608 2.12813 8.6446 2.47122 8.50323 3.10338C8.25969 4.19414 7.36928 5.07794 6.51787 5.80502C6.50017 5.82061 6.48311 5.84488 6.46028 5.84508C5.92528 6.25026 5.54619 6.48859 5.49693 7.2471C5.4264 8.31419 5.26276 9.58269 5.30271 10.661C5.33265 11.4482 5.61952 11.8192 6.43072 11.9232C7.14309 12.0152 8.46011 12.1246 9.61742 12.2135C10.5062 12.2813 11.291 11.6621 11.4702 10.7527L12.2038 7.01638C12.2983 6.5347 11.965 6.03695 11.4938 6.01364C10.7916 5.9744 9.81173 5.83639 9.37862 5.79472Z" fill="#FFC4A3"/>
<path d="M4.571 6.04429L2.9646 5.91456C2.56142 5.88198 2.22074 6.19837 2.20247 6.62127L2.01696 10.9084C1.9987 11.3313 2.31068 11.6995 2.71386 11.732L4.32026 11.8618C4.72345 11.8944 5.06412 11.578 5.08239 11.1551L5.2679 6.86798C5.28617 6.44508 4.97418 6.07687 4.571 6.04429ZM4.41231 11.4368C4.25183 11.4244 4.12832 11.2783 4.13652 11.1105C4.14326 10.9421 4.27848 10.8169 4.43851 10.8308C4.599 10.8432 4.72251 10.9894 4.7143 11.1572C4.7061 11.325 4.57087 11.4502 4.41231 11.4368Z" fill="#0047F5"/>
</svg>
