<svg width="172" height="32" viewBox="0 0 172 32" fill="none" xmlns="http://www.w3.org/2000/svg">
<path d="M31.1 9.1L30.85 23.3L32.95 23.5C32.95 23.9667 32.8083 24.4667 32.525 25H26.775L26.7 24.125C27.4667 23.8583 28.225 23.6583 28.975 23.525C28.9417 22.4417 28.8833 20.2083 28.8 16.825C28.7333 13.4417 28.675 10.825 28.625 8.975C27.9583 8.84167 27.2083 8.64167 26.375 8.375L26.45 7.5H32.7C32.9833 8.03333 33.125 8.53333 33.125 9C32.275 9.06667 31.6 9.1 31.1 9.1ZM47.5221 14.8C47.5887 15.3333 47.6221 15.95 47.6221 16.65C47.6221 17.35 47.5554 19.5667 47.4221 23.3L49.5221 23.5C49.5221 23.9667 49.3804 24.4667 49.0971 25H43.3471L43.2721 24.125C44.0387 23.8583 44.7887 23.6583 45.5221 23.525C45.4221 19.0917 45.3304 16.625 45.2471 16.125C45.1804 15.625 45.0637 15.2083 44.8971 14.875C44.7304 14.525 44.4721 14.2833 44.1221 14.15C43.7721 14.0167 43.2387 13.95 42.5221 13.95C41.8221 13.95 40.8971 14.2167 39.7471 14.75C39.6471 18.55 39.5804 21.4 39.5471 23.3L41.6471 23.5C41.6471 23.9667 41.5054 24.4667 41.2221 25H35.4721L35.3971 24.125C36.1637 23.8583 36.9137 23.6583 37.6471 23.525C37.6304 22.325 37.5887 20.6333 37.5221 18.45C37.4554 16.25 37.4137 14.8083 37.3971 14.125C36.4804 14.075 35.7471 13.975 35.1971 13.825L35.2971 12.525C36.1971 12.275 37.5054 12.15 39.2221 12.15C39.4554 12.5667 39.6054 13 39.6721 13.45C40.4054 13.0667 41.1304 12.7333 41.8471 12.45C42.5637 12.15 43.0137 12 43.1971 12C45.0471 12 46.3387 12.5667 47.0721 13.7C47.8387 13.2833 48.6304 12.9 49.4471 12.55C50.2804 12.1833 50.7804 12 50.9471 12C52.4637 12 53.5971 12.375 54.3471 13.125C55.1137 13.8583 55.4971 15.0667 55.4971 16.75C55.4971 17.25 55.4304 19.4333 55.2971 23.3L57.3971 23.5C57.3971 23.9667 57.2554 24.4667 56.9721 25H51.2221L51.1471 24.125C51.9137 23.8583 52.6637 23.6583 53.3971 23.525C53.3304 20.8917 53.2721 18.9 53.2221 17.55C53.1721 16.2 52.9804 15.2667 52.6471 14.75C52.3137 14.2167 51.6471 13.95 50.6471 13.95C49.6471 13.95 48.6054 14.2333 47.5221 14.8ZM64.3166 23.8C65.7166 23.8 66.6583 23.3667 67.1416 22.5C67.6416 21.6167 67.8916 20.3667 67.8916 18.75C67.8916 16.1833 67.3249 14.575 66.1916 13.925C65.7249 13.6583 65.0666 13.525 64.2166 13.525C63.3833 13.525 62.5916 13.7 61.8416 14.05C61.1749 15.3333 60.8416 16.825 60.8416 18.525C60.8416 20.1583 61.0583 21.4167 61.4916 22.3C61.9916 23.3 62.9333 23.8 64.3166 23.8ZM58.5416 18.75C58.5416 16.6333 59.0249 14.9833 59.9916 13.8C60.9583 12.6 62.4499 12 64.4666 12C66.4833 12 67.9416 12.55 68.8416 13.65C69.7416 14.7333 70.1916 16.3417 70.1916 18.475C70.1916 20.6083 69.7083 22.2833 68.7416 23.5C67.7916 24.7167 66.3416 25.325 64.3916 25.325C62.4416 25.325 60.9749 24.7583 59.9916 23.625C59.0249 22.4917 58.5416 20.8667 58.5416 18.75ZM79.7938 12C81.3938 12 82.5521 12.4 83.2688 13.2C83.9854 13.9833 84.3438 15.1833 84.3438 16.8C84.3438 17.2667 84.2771 19.4333 84.1438 23.3L86.2438 23.5C86.2438 23.9667 86.1021 24.4667 85.8188 25H80.0688L79.9938 24.125C80.7604 23.8583 81.5104 23.6583 82.2438 23.525C82.1438 19.1583 82.0521 16.7333 81.9688 16.25C81.9021 15.75 81.7854 15.3167 81.6188 14.95C81.4521 14.5833 81.2021 14.325 80.8688 14.175C80.5354 14.025 80.0938 13.95 79.5438 13.95C78.4438 13.95 77.3771 14.2167 76.3438 14.75C76.2438 18.55 76.1771 21.4 76.1438 23.3L78.2438 23.5C78.2438 23.9667 78.1021 24.4667 77.8188 25H72.0688L71.9938 24.125C72.7604 23.8583 73.5104 23.6583 74.2438 23.525C74.1438 19.2917 74.0604 16.1583 73.9938 14.125C73.0771 14.075 72.3438 13.975 71.7938 13.825L71.8938 12.525C72.7938 12.275 74.1021 12.15 75.8188 12.15C76.0188 12.45 76.1688 12.8833 76.2688 13.45C76.9854 13.0667 77.7021 12.7333 78.4188 12.45C79.1521 12.15 79.6104 12 79.7938 12ZM93.749 23.6C94.4824 23.6 95.6324 23.25 97.199 22.55C97.5157 22.9833 97.6824 23.3667 97.699 23.7C96.849 24.2 96.0157 24.5917 95.199 24.875C94.3824 25.1583 93.799 25.3 93.449 25.3C91.5157 25.3 90.0407 24.725 89.024 23.575C88.0074 22.4083 87.499 20.7833 87.499 18.7C87.499 16.6167 87.9907 14.9833 88.974 13.8C89.974 12.6 91.4657 12 93.449 12C94.9824 12 96.149 12.55 96.949 13.65C97.7657 14.75 98.174 16.225 98.174 18.075C98.0407 18.3083 97.9324 18.4667 97.849 18.55L89.799 18.425C89.8157 20.1083 90.1074 21.3917 90.674 22.275C91.2574 23.1583 92.2824 23.6 93.749 23.6ZM95.899 17C95.899 15.9 95.699 15.05 95.299 14.45C94.899 13.8333 94.2324 13.525 93.299 13.525C92.3657 13.525 91.5324 13.7 90.799 14.05C90.299 15.05 89.9824 16.075 89.849 17.125C91.1657 17.1083 93.1824 17.0667 95.899 17ZM102.792 29.65C103.425 29.65 104.042 29.0417 104.642 27.825C105.259 26.6083 105.609 25.6667 105.692 25H105.092L101.142 14L99.042 13.8C99.042 13.3333 99.1837 12.8333 99.467 12.3H105.217L105.292 13.175C104.759 13.4083 104.167 13.5917 103.517 13.725L105.692 20.55L106.267 22.75H106.517L109.517 13.725L107.417 13.175L107.492 12.3H113.117C113.4 12.8333 113.542 13.3333 113.542 13.8C112.859 13.8833 112.175 13.9417 111.492 13.975C111.059 15.2417 110.409 17.1333 109.542 19.65C108.692 22.1667 108.017 24.1167 107.517 25.5C107.034 26.8833 106.55 28.0083 106.067 28.875C105.584 29.7417 105.1 30.3167 104.617 30.6C104.15 30.9 103.625 31.05 103.042 31.05C102.009 31.05 101.042 30.85 100.142 30.45L99.692 30.225C99.8087 28.325 99.8837 27.2833 99.917 27.1C100.05 27.05 100.534 27.025 101.367 27.025L102.217 29.575C102.367 29.625 102.559 29.65 102.792 29.65Z" fill="white"/>
<g clip-path="url(#clip0_1_1573)">
<path d="M10.9466 5H9.04718V27H10.9466C15.945 27 19.9938 22.0763 19.9938 16C20 9.92375 15.945 5 10.9466 5Z" fill="#DB6402"/>
<path d="M9.04718 26.4045V27H10.9466C13.0709 27 15.0203 26.11 16.5636 24.6182L9.04718 24.7014V26.4045Z" fill="#DBA97F"/>
<path d="M13.0584 12.5169L19.5127 12.4529C19.0878 10.929 18.3943 9.55242 17.5008 8.41272L13.0209 8.45754L13.0584 12.5169Z" fill="white"/>
<path d="M13.0147 7.68919L16.8322 7.65077C16.6385 7.44588 16.4324 7.2538 16.2262 7.06812L13.0084 7.10013L13.0147 7.68919Z" fill="white"/>
<path d="M9.04717 27C14.0438 27 18.0943 22.0751 18.0943 16C18.0943 9.92487 14.0438 5 9.04717 5C4.05056 5 0 9.92487 0 16C0 22.0751 4.05056 27 9.04717 27Z" fill="#FEE475"/>
<path d="M9.04715 26.6415C13.8816 26.6415 17.8007 21.8771 17.8007 16C17.8007 10.1229 13.8816 5.35858 9.04715 5.35858C4.21272 5.35858 0.29364 10.1229 0.29364 16C0.29364 21.8771 4.21272 26.6415 9.04715 26.6415Z" fill="#FED425"/>
<path d="M4.71725 25.2392L17.3258 12.5233C16.8947 11.0186 16.2012 9.66121 15.3014 8.54712L1.87439 22.089C2.61791 23.376 3.58635 24.4581 4.71725 25.2392Z" fill="white"/>
<path d="M17.5008 18.7788L9.74072 26.603C13.4771 26.2445 16.5511 23.0431 17.5008 18.7788Z" fill="white"/>
<path d="M0.687256 12.8563L8.04746 5.42902C7.16648 5.55067 6.32299 5.83239 5.54199 6.24857L1.81815 10.007C1.3308 10.8714 0.943426 11.8318 0.687256 12.8563Z" fill="white"/>
<path d="M1.38706 21.1415L14.6204 7.79804C14.458 7.63797 14.2955 7.48431 14.1268 7.34344L1.1059 20.4692C1.19337 20.6997 1.28709 20.9238 1.38706 21.1415Z" fill="white"/>
<path d="M9.04717 5.40338C13.9894 5.40338 18.0069 10.2183 18.0943 16.2049C18.0943 16.1409 18.1006 16.0704 18.1006 16.0064C18.1006 9.92375 14.0456 5 9.04717 5C4.04873 5 0 9.92375 0 16C0 16.0704 0.00624805 16.1345 0.00624805 16.1985C0.0937207 10.2183 4.10497 5.40338 9.04717 5.40338Z" fill="white"/>
<path d="M9.25333 23.8691C12.6902 23.8691 15.4764 20.4807 15.4764 16.301C15.4764 12.1212 12.6902 8.73285 9.25333 8.73285C5.81643 8.73285 3.03027 12.1212 3.03027 16.301C3.03027 20.4807 5.81643 23.8691 9.25333 23.8691Z" fill="white"/>
<path d="M9.04715 23.5681C12.4841 23.5681 15.2702 20.1797 15.2702 16C15.2702 11.8202 12.4841 8.43188 9.04715 8.43188C5.61025 8.43188 2.8241 11.8202 2.8241 16C2.8241 20.1797 5.61025 23.5681 9.04715 23.5681Z" fill="#FEB724"/>
<path d="M3.24272 16.6403C3.24272 12.4592 6.02935 9.07216 9.46577 9.07216C11.3277 9.07216 12.9959 10.0646 14.1331 11.6333C13.0084 9.69324 11.1465 8.43188 9.04715 8.43188C5.61073 8.43188 2.8241 11.819 2.8241 16C2.8241 17.9208 3.41141 19.6688 4.37986 21.007C3.66133 19.7712 3.24272 18.2666 3.24272 16.6403Z" fill="#FB9D12"/>
</g>
<path d="M21.5 1L22.4453 3.55468L25 4.5L22.4453 5.44532L21.5 8L20.5547 5.44532L18 4.5L20.5547 3.55468L21.5 1Z" fill="white"/>
<path d="M14.5 1L14.9051 2.09486L16 2.5L14.9051 2.90514L14.5 4L14.0949 2.90514L13 2.5L14.0949 2.09486L14.5 1Z" fill="white"/>
<path d="M22.5 11L22.9051 12.0949L24 12.5L22.9051 12.9051L22.5 14L22.0949 12.9051L21 12.5L22.0949 12.0949L22.5 11Z" fill="white"/>
<defs>
<clipPath id="clip0_1_1573">
<rect width="20" height="22" fill="white" transform="translate(0 5)"/>
</clipPath>
</defs>
</svg>
