<svg width="21" height="22" viewBox="0 0 21 22" fill="none" xmlns="http://www.w3.org/2000/svg">
<path d="M15.8074 14.4058C15.5959 14.9997 14.5791 15.5414 14.0921 15.615C13.5579 15.7067 13.0096 15.6725 12.4909 15.5152C11.9987 15.3627 11.515 15.1843 11.0417 14.9807C8.49011 13.876 6.82472 11.3031 6.6988 11.1415C6.57289 10.98 5.66061 9.76358 5.66061 8.51394C5.65357 8.11839 5.72894 7.72571 5.88191 7.36088C6.03488 6.99604 6.2621 6.66703 6.54913 6.39478C6.63394 6.2979 6.73787 6.21961 6.85439 6.16482C6.97091 6.11003 7.09751 6.07994 7.22622 6.07643C7.3949 6.07643 7.56595 6.07643 7.71324 6.07643C7.86054 6.07643 8.07911 6.01704 8.2858 6.51357C8.49249 7.0101 8.99852 8.27399 9.0698 8.3999C9.10933 8.46659 9.13195 8.54194 9.13568 8.61938C9.1394 8.69682 9.12413 8.77399 9.09118 8.84417C9.02703 8.99652 8.94143 9.13892 8.83697 9.26705C8.70868 9.41434 8.57089 9.59728 8.45685 9.71131C8.34281 9.82535 8.19789 9.97502 8.34519 10.2292C8.73046 10.8834 9.21086 11.4767 9.77063 11.9896C10.3732 12.5256 11.0646 12.9525 11.8138 13.2512C12.068 13.3795 12.2153 13.3581 12.3649 13.187C12.5146 13.016 12.9993 12.4458 13.1703 12.1916C13.3414 11.9374 13.51 11.9801 13.7429 12.0633C13.9757 12.1464 15.2253 12.7618 15.4795 12.8901C15.7337 13.0183 15.9024 13.0801 15.9666 13.187C16.0307 13.2939 16.0188 13.8118 15.805 14.4058H15.8074Z" fill="white"/>
<path fill-rule="evenodd" clip-rule="evenodd" d="M18.0268 3.58403C16.2831 1.83583 13.9631 0.781501 11.4993 0.61765C9.03561 0.4538 6.59639 1.19161 4.63651 2.6935C2.67664 4.1954 1.32991 6.35884 0.847446 8.78042C0.364985 11.202 0.779728 13.7164 2.01434 15.8547L0.572266 21.1241L5.9652 19.6987C7.45667 20.5107 9.12776 20.9362 10.826 20.9364C12.8378 20.9366 14.8045 20.3402 16.4775 19.2227C18.1504 18.1052 19.4544 16.5167 20.2246 14.6582C20.9948 12.7996 21.1967 10.7544 20.8047 8.78113C20.4126 6.80786 19.4443 4.99513 18.0221 3.57215L18.0268 3.58403ZM10.8307 19.2306C9.31597 19.2278 7.82989 18.8175 6.52825 18.0428L6.2194 17.8598L3.01928 18.6985L3.87454 15.5791L3.67261 15.2584C2.67606 13.6707 2.2354 11.7967 2.41992 9.93125C2.60444 8.06576 3.40367 6.31449 4.69196 4.95273C5.98026 3.59097 7.68456 2.69594 9.53696 2.40835C11.3894 2.12076 13.2848 2.45692 14.9253 3.36397C16.5659 4.27103 17.8585 5.69754 18.5999 7.41927C19.3413 9.141 19.4896 11.0603 19.0214 12.8755C18.5531 14.6907 17.4949 16.2988 16.0132 17.447C14.5314 18.5952 12.7101 19.2185 10.8355 19.2188L10.8307 19.2306Z" fill="white"/>
</svg>
